<svg xmlns="http://www.w3.org/2000/svg" width="41" height="40" fill="none" viewBox="0 0 41 40"><g clip-path="url(#clip0_24086_201255)"><path fill="url(#paint0_linear_24086_201255)" fill-rule="evenodd" d="M31.5211 26.3219L8.68359 39.8795L38.2539 37.8734L40.5314 8.06348L31.5211 26.3219Z" clip-rule="evenodd"/><path fill="url(#paint1_linear_24086_201255)" fill-rule="evenodd" d="M38.3004 37.8528L35.7589 20.3149L28.8359 29.4543L38.3004 37.8528Z" clip-rule="evenodd"/><path fill="url(#paint2_linear_24086_201255)" fill-rule="evenodd" d="M38.3354 37.8532L19.7155 36.3918L8.78125 39.8415L38.3354 37.8532Z" clip-rule="evenodd"/><path fill="url(#paint3_linear_24086_201255)" fill-rule="evenodd" d="M8.80687 39.8452L13.4584 24.6104L3.22266 26.7985L8.80687 39.8452Z" clip-rule="evenodd"/><path fill="url(#paint4_linear_24086_201255)" fill-rule="evenodd" d="M28.8371 29.5049L24.5571 12.7441L12.3086 24.2228L28.8371 29.5049Z" clip-rule="evenodd"/><path fill="url(#paint5_linear_24086_201255)" fill-rule="evenodd" d="M39.5602 12.9803L27.982 3.52612L24.7578 13.9471L39.5602 12.9803Z" clip-rule="evenodd"/><path fill="url(#paint6_linear_24086_201255)" fill-rule="evenodd" d="M34.1449 0.15544L27.3352 3.91773L23.0391 0.10498L34.1449 0.15544Z" clip-rule="evenodd"/><path fill="url(#paint7_linear_24086_201255)" fill-rule="evenodd" d="M0.53125 31.9089L3.38392 26.7075L1.07635 20.511L0.53125 31.9089Z" clip-rule="evenodd"/><path fill="#fff" fill-rule="evenodd" d="M0.921875 20.3152L3.24358 26.8992L13.3319 24.6364L24.8496 13.9348L28.1 3.61293L22.9819 0L14.2806 3.25568C11.5391 5.80491 6.21941 10.8489 6.02761 10.9438C5.83784 11.0406 2.51477 17.3199 0.921875 20.3152Z" clip-rule="evenodd"/><path fill="url(#paint8_linear_24086_201255)" fill-rule="evenodd" d="M9.07425 8.4872C15.0158 2.59751 22.6754 -0.882205 25.6149 2.08282C28.5526 5.04785 25.4372 12.2535 19.4957 18.1412C13.5541 24.0289 5.9894 27.7003 3.05194 24.7353C0.112452 21.7723 3.13269 14.3749 9.07425 8.4872Z" clip-rule="evenodd"/><path fill="url(#paint9_linear_24086_201255)" fill-rule="evenodd" d="M8.80859 39.8392L13.4237 24.5559L28.7511 29.4788C23.2092 34.6741 17.0456 39.0662 8.80859 39.8392Z" clip-rule="evenodd"/><path fill="url(#paint10_linear_24086_201255)" fill-rule="evenodd" d="M24.8711 13.9047L28.8059 29.4868C33.4352 24.6204 37.59 19.3887 39.6248 12.9177L24.8711 13.9047Z" clip-rule="evenodd"/><path fill="url(#paint11_linear_24086_201255)" fill-rule="evenodd" d="M39.5844 12.9963C41.1591 8.245 41.5225 1.42887 34.0969 0.16333L28.0039 3.528L39.5844 12.9963Z" clip-rule="evenodd"/><path fill="#9E1209" fill-rule="evenodd" d="M0.53125 31.8403C0.749289 39.682 6.4082 39.7988 8.81874 39.8676L3.25068 26.8669L0.53125 31.8403Z" clip-rule="evenodd"/><path fill="url(#paint12_radial_24086_201255)" fill-rule="evenodd" d="M24.8945 13.929C28.4518 16.1149 35.621 20.5049 35.7664 20.5857C35.9923 20.7128 38.8573 15.7556 39.5074 12.9541L24.8945 13.929Z" clip-rule="evenodd"/><path fill="url(#paint13_radial_24086_201255)" fill-rule="evenodd" d="M13.418 24.5559L19.5877 36.4564C23.2358 34.4783 26.0925 32.0684 28.7089 29.4869L13.418 24.5559Z" clip-rule="evenodd"/><path fill="url(#paint14_linear_24086_201255)" fill-rule="evenodd" d="M3.22574 26.883L2.35156 37.2898C4.00098 39.5423 6.2702 39.7381 8.65046 39.5625C6.92836 35.2775 3.48819 26.7094 3.22574 26.883Z" clip-rule="evenodd"/><path fill="url(#paint15_linear_24086_201255)" fill-rule="evenodd" d="M27.9688 3.55426L40.2254 5.27393C39.5712 2.50267 37.5625 0.71437 34.1384 0.155273L27.9688 3.55426Z" clip-rule="evenodd"/></g><defs><linearGradient id="paint0_linear_24086_201255" x1="35.675" x2="27.239" y1="43.506" y2="28.61" gradientUnits="userSpaceOnUse"><stop stop-color="#FB7655"/><stop offset=".41" stop-color="#E42B1E"/><stop offset=".99" stop-color="#900"/><stop offset="1" stop-color="#900"/></linearGradient><linearGradient id="paint1_linear_24086_201255" x1="39.876" x2="29.003" y1="30.994" y2="23.695" gradientUnits="userSpaceOnUse"><stop stop-color="#871101"/><stop offset=".99" stop-color="#911209"/><stop offset="1" stop-color="#911209"/></linearGradient><linearGradient id="paint2_linear_24086_201255" x1="31.176" x2="20.302" y1="43.958" y2="36.66" gradientUnits="userSpaceOnUse"><stop stop-color="#871101"/><stop offset=".99" stop-color="#911209"/><stop offset="1" stop-color="#911209"/></linearGradient><linearGradient id="paint3_linear_24086_201255" x1="8.342" x2="10.027" y1="25.712" y2="36.667" gradientUnits="userSpaceOnUse"><stop stop-color="#fff"/><stop offset=".23" stop-color="#E57252"/><stop offset=".46" stop-color="#DE3B20"/><stop offset=".99" stop-color="#A60003"/><stop offset="1" stop-color="#A60003"/></linearGradient><linearGradient id="paint4_linear_24086_201255" x1="19.941" x2="20.561" y1="15.484" y2="26.663" gradientUnits="userSpaceOnUse"><stop stop-color="#fff"/><stop offset=".23" stop-color="#E4714E"/><stop offset=".56" stop-color="#BE1A0D"/><stop offset=".99" stop-color="#A80D00"/><stop offset="1" stop-color="#A80D00"/></linearGradient><linearGradient id="paint5_linear_24086_201255" x1="30.23" x2="32.088" y1="5.151" y2="13.163" gradientUnits="userSpaceOnUse"><stop stop-color="#fff"/><stop offset=".18" stop-color="#E46342"/><stop offset=".4" stop-color="#C82410"/><stop offset=".99" stop-color="#A80D00"/><stop offset="1" stop-color="#A80D00"/></linearGradient><linearGradient id="paint6_linear_24086_201255" x1="24.55" x2="32.563" y1="2.33" y2="-1.678" gradientUnits="userSpaceOnUse"><stop stop-color="#fff"/><stop offset=".54" stop-color="#C81F11"/><stop offset=".99" stop-color="#BF0905"/><stop offset="1" stop-color="#BF0905"/></linearGradient><linearGradient id="paint7_linear_24086_201255" x1="1.319" x2="1.979" y1="22.92" y2="29.522" gradientUnits="userSpaceOnUse"><stop stop-color="#fff"/><stop offset=".31" stop-color="#DE4024"/><stop offset=".99" stop-color="#BF190B"/><stop offset="1" stop-color="#BF190B"/></linearGradient><linearGradient id="paint8_linear_24086_201255" x1="-3.216" x2="27.781" y1="31.306" y2="-.575" gradientUnits="userSpaceOnUse"><stop stop-color="#BD0012"/><stop offset=".07" stop-color="#fff"/><stop offset=".17" stop-color="#fff"/><stop offset=".27" stop-color="#C82F1C"/><stop offset=".33" stop-color="#820C01"/><stop offset=".46" stop-color="#A31601"/><stop offset=".72" stop-color="#B31301"/><stop offset=".99" stop-color="#E82609"/><stop offset="1" stop-color="#E82609"/></linearGradient><linearGradient id="paint9_linear_24086_201255" x1="20.533" x2="11.195" y1="34.521" y2="32.216" gradientUnits="userSpaceOnUse"><stop stop-color="#8C0C01"/><stop offset=".54" stop-color="#990C00"/><stop offset=".99" stop-color="#A80D0E"/><stop offset="1" stop-color="#A80D0E"/></linearGradient><linearGradient id="paint10_linear_24086_201255" x1="36.574" x2="28.279" y1="23.315" y2="15.88" gradientUnits="userSpaceOnUse"><stop stop-color="#7E110B"/><stop offset=".99" stop-color="#9E0C00"/><stop offset="1" stop-color="#9E0C00"/></linearGradient><linearGradient id="paint11_linear_24086_201255" x1="39.621" x2="35.49" y1="9.675" y2="5.258" gradientUnits="userSpaceOnUse"><stop stop-color="#79130D"/><stop offset=".99" stop-color="#9E120B"/><stop offset="1" stop-color="#9E120B"/></linearGradient><radialGradient id="paint12_radial_24086_201255" cx="0" cy="0" r="1" gradientTransform="translate(29.5708 16.0237) scale(10.1666 10.1642)" gradientUnits="userSpaceOnUse"><stop stop-color="#A80D00"/><stop offset=".99" stop-color="#7E0E08"/><stop offset="1" stop-color="#7E0E08"/></radialGradient><radialGradient id="paint13_radial_24086_201255" cx="0" cy="0" r="1" gradientTransform="translate(15.4898 29.4184) scale(13.5151 13.5119)" gradientUnits="userSpaceOnUse"><stop stop-color="#A30C00"/><stop offset=".99" stop-color="#800E08"/><stop offset="1" stop-color="#800E08"/></radialGradient><linearGradient id="paint14_linear_24086_201255" x1="5.915" x2="2.549" y1="39.83" y2="28.407" gradientUnits="userSpaceOnUse"><stop stop-color="#8B2114"/><stop offset=".43" stop-color="#9E100A"/><stop offset=".99" stop-color="#B3100C"/><stop offset="1" stop-color="#B3100C"/></linearGradient><linearGradient id="paint15_linear_24086_201255" x1="31.752" x2="39.302" y1="1.977" y2="5.311" gradientUnits="userSpaceOnUse"><stop stop-color="#B31000"/><stop offset=".44" stop-color="#910F08"/><stop offset=".99" stop-color="#791C12"/><stop offset="1" stop-color="#791C12"/></linearGradient><clipPath id="clip0_24086_201255"><rect width="40" height="40" fill="#fff" transform="translate(0.53125)"/></clipPath></defs></svg>